<svg xmlns="http://www.w3.org/2000/svg" width="20" height="20" viewBox="0 0 20 20"><path d="M8.616 13.228C8.09 15.98 7.45 18.62 5.55 20c-.586-4.162.86-7.287 1.533-10.605-1.146-1.93.138-5.812 2.556-4.855 2.974 1.177-2.577 7.173 1.15 7.922 3.89.782 5.478-6.75 3.066-9.2-3.486-3.537-10.148-.08-9.328 4.982.2 1.238 1.478 1.614.51 3.322-2.23-.494-2.896-2.254-2.81-4.6C2.366 3.126 5.678.44 9 .066c4.202-.47 8.145 1.543 8.688 5.495.613 4.46-1.895 9.292-6.39 8.944-1.216-.093-1.727-.696-2.682-1.276z"/></svg>