<svg xmlns="http://www.w3.org/2000/svg" width="542.3" height="67.1" viewBox="0 0 542.3 67.1"><path fill="#FFF" d="M144.3.1V59L121.8.1h-2.9V67h2.9V8.4l22.6 58.7h2.9V.1M109.2.2h2.9v66.9h-2.9zM67.8.2h-2.9V53c0 6.1-5 11.1-11.1 11.1s-11.1-5-11.1-11.1V.2h-2.9V53c0 7.8 6.3 14 14 14 7.8 0 14-6.3 14-14V.2zM16.5 30.2L2.7.2 0 1.4l14.9 32.3L0 65.9l2.7 1.2L33 1.4 30.3.2M299.7 33.6c0 16.4-12.9 29.8-29.1 30.5v-61c16.1.8 29.1 14.1 29.1 30.5m2.9 0c0-18.5-15-33.5-33.5-33.5l-1.5.1v66.9h2.9V67c17.9-.8 32.1-15.4 32.1-33.4M380.7.2h2.9v66.9h-2.9zM423.6 40.3h29.7c-3.1 13.6-15.1 23.8-29.6 23.8-16.8 0-30.5-13.7-30.5-30.5s13.7-30.5 30.5-30.5c11.8 0 22 6.7 27.1 16.4l2.5-1.4C447.7 7.4 436.6 0 423.7 0c-18.4 0-33.4 15-33.4 33.5S405.2 67 423.7 67c17.1 0 31.3-13 33.1-29.7h-33.3l.1 3zM489 .1V59L466.5.1h-2.9V67h2.9V8.4l22.6 58.7h2.9V.1M352.2 26.4c10.9 1.6 18.9 9.2 18.9 19.3 0 10.2-8.5 18.4-18.9 18.4s-18.9-8.2-18.9-18.4v-.5h-2.9v.5c0 11.8 9.8 21.3 21.8 21.3S374 57.5 374 45.7s-8.4-19.9-21.8-22.3c-6-1.1-10.3-4.8-10.3-10.3S346.5 3 352.2 3c5.7 0 10.3 4.7 10.3 10.2 0 .1 2.8 0 2.8 0v-.3c0-7.1-5.9-12.9-13.1-12.9s-13.1 5.8-13.1 12.9c0 7.2 5.4 12.4 13.1 13.5M520.5 26.4c10.9 1.6 18.9 9.2 18.9 19.3 0 10.2-8.5 18.4-18.9 18.4-10.4 0-18.9-8.2-18.9-18.4v-.5h-2.9v.5c0 11.8 9.8 21.3 21.8 21.3s21.8-9.5 21.8-21.3-8.4-19.9-21.8-22.3c-6-1.1-10.3-4.8-10.3-10.3S514.8 3 520.5 3c5.7 0 10.3 4.7 10.3 10.2 0 .1 2.8 0 2.8 0v-.3c0-7.1-5.9-12.9-13.1-12.9-7.2 0-13.1 5.8-13.1 12.9-.1 7.2 5.4 12.4 13.1 13.5M309.3.1v67h14.4v-2.9h-11.5V28.8h8.7v-2.9h-8.7V3h8.7V.1M187.5 40.3h29.7c-3.1 13.6-15.1 23.8-29.6 23.8-16.8 0-30.5-13.7-30.5-30.5s13.7-30.5 30.5-30.5c11.8 0 22 6.7 27.1 16.4l2.5-1.4C211.6 7.4 200.5 0 187.6 0c-18.4 0-33.4 15-33.4 33.5S169.1 67 187.6 67c17.1 0 31.3-13 33.1-29.7h-33.2v3zM74.5.2v66.9h28v-2.9H77.4V.2"/></svg>