<svg viewBox="0 0 100 100" xmlns="http://www.w3.org/2000/svg"><symbol viewBox="0 0 32 32" id="shape-arrow-down"><title>arrow-down</title><path d="M24.773 13.7c-.65.67-7.512 7.206-7.512 7.206-.348.357-.804.534-1.26.534-.458 0-.914-.178-1.26-.534 0 0-6.862-6.536-7.515-7.205-.65-.668-.696-1.87 0-2.585.698-.714 1.67-.77 2.522 0L16 17.112l6.25-5.995c.855-.77 1.828-.714 2.523 0 .698.714.654 1.917 0 2.584z"/></symbol><symbol viewBox="0 0 32 32" id="shape-arrow-left"><title>arrow-left</title><path d="M18.3 7.226c-.67.653-7.204 7.514-7.204 7.514-.357.35-.534.805-.534 1.26s.178.913.534 1.262c0 0 6.534 6.86 7.203 7.512.668.653 1.87.698 2.585 0 .712-.696.768-1.667-.002-2.52L14.888 16l5.995-6.252c.77-.854.714-1.826.002-2.522-.715-.696-1.918-.653-2.586 0z"/></symbol><symbol viewBox="0 0 32 32" id="shape-arrow-right"><title>arrow-right</title><path d="M13.7 7.226c.67.653 7.204 7.514 7.204 7.514.358.35.536.805.536 1.26s-.178.913-.536 1.262c0 0-6.534 6.86-7.203 7.512-.668.653-1.87.698-2.585 0-.714-.696-.77-1.667 0-2.52L17.112 16 11.117 9.75c-.77-.854-.714-1.826 0-2.522.714-.696 1.917-.653 2.584 0z"/></symbol><symbol viewBox="0 0 32 32" id="shape-arrow-up"><title>arrow-up</title><path d="M29.2 19.4c-1-1-11.3-10.8-11.3-10.8-.5-.5-1.2-.8-1.9-.8s-1.4.3-1.9.8c0 0-10.3 9.8-11.3 10.8s-1 2.8 0 3.9 2.5 1.2 3.8 0l9.4-9 9.4 9c1.3 1.2 2.7 1.1 3.8 0 1-1 .9-2.8 0-3.9z"/></symbol><symbol viewBox="0 0 32 32" id="shape-facebook"><title>facebook</title><path d="M17.996 32H12V16H8v-5.514l4-.002-.007-3.248c0-4.498 1.22-7.236 6.52-7.236h4.41v5.515h-2.756c-2.064 0-2.163.77-2.163 2.21l-.008 2.76h4.96l-.585 5.513L18 16l-.003 16z"/></symbol><symbol viewBox="0 0 11.4 11.4" id="shape-instagram"><title>instagram</title><path d="M10.2 3.7v4.8c0 .6 0 1.7-1.7 1.7H2.9c-1.7 0-1.7-1.1-1.7-1.7V3.7h2c-.6.6-.9 1.4-.9 2.2 0 1.9 1.5 3.4 3.4 3.4s3.4-1.5 3.4-3.4c0-.9-.4-1.7-.9-2.3h2zm0-1.2H8V1.2h.5c1.4 0 1.7.7 1.7 1.3M8 5.9c0 1.3-1 2.3-2.3 2.3-1.3 0-2.3-1-2.3-2.3s1-2.3 2.3-2.3C7 3.7 8 4.7 8 5.9m3.4 3.4V2.1c0-.7 0-2.1-2.1-2.1H2.1C0 0 0 1.4 0 2.1v7.2c0 .7 0 2.1 2.1 2.1h7.2c2.1 0 2.1-1.4 2.1-2.1"/></symbol><symbol viewBox="0 0 20 20" id="shape-pinterest"><title>pinterest</title><path d="M8.616 13.228C8.09 15.98 7.45 18.62 5.55 20c-.586-4.162.86-7.287 1.533-10.605-1.146-1.93.138-5.812 2.556-4.855 2.974 1.177-2.577 7.173 1.15 7.922 3.89.782 5.478-6.75 3.066-9.2-3.486-3.537-10.148-.08-9.328 4.982.2 1.238 1.478 1.614.51 3.322-2.23-.494-2.896-2.254-2.81-4.6C2.366 3.126 5.678.44 9 .066c4.202-.47 8.145 1.543 8.688 5.495.613 4.46-1.895 9.292-6.39 8.944-1.216-.093-1.727-.696-2.682-1.276z"/></symbol><symbol viewBox="0 0 32 32" id="shape-quotes-left"><title>quotes-left</title><path d="M7.03 14c3.867 0 7 3.134 7 7s-3.133 7-7 7c-3.865 0-7-3.134-7-7L0 20C0 12.268 6.268 6 14 6v4c-2.67 0-5.182 1.04-7.07 2.93-.365.363-.696.75-.996 1.156C6.29 14.03 6.658 14 7.03 14zm18 0c3.867 0 7 3.134 7 7s-3.133 7-7 7c-3.865 0-7-3.134-7-7L18 20c0-7.732 6.268-14 14-14v4c-2.67 0-5.182 1.04-7.07 2.93-.365.363-.696.75-.996 1.156.358-.056.724-.086 1.097-.086z" fill="#aaa"/></symbol><symbol viewBox="0 0 56.3 56.2" id="shape-search"><title>search</title><path d="M22.5 37.5c-8.3 0-15-6.7-15-15s6.7-15 15-15 15 6.7 15 15-6.7 15-15 15zm32.7 12.3L40.8 35.5c2.6-3.7 4.2-8.2 4.2-13C45 10.1 34.9 0 22.5 0S0 10.1 0 22.5 10.1 45 22.5 45c4.9 0 9.3-1.5 13-4.2l14.3 14.3c.7.7 1.7 1.1 2.6 1.1s1.9-.4 2.7-1.1c1.5-1.4 1.5-3.8.1-5.3z"/></symbol><symbol viewBox="0 0 542.3 67.1" id="shape-text-logo"><title>text-logo</title><path fill="#FFF" d="M144.3.1V59L121.8.1h-2.9V67h2.9V8.4l22.6 58.7h2.9V.1M109.2.2h2.9v66.9h-2.9zM67.8.2h-2.9V53c0 6.1-5 11.1-11.1 11.1s-11.1-5-11.1-11.1V.2h-2.9V53c0 7.8 6.3 14 14 14 7.8 0 14-6.3 14-14V.2zM16.5 30.2L2.7.2 0 1.4l14.9 32.3L0 65.9l2.7 1.2L33 1.4 30.3.2M299.7 33.6c0 16.4-12.9 29.8-29.1 30.5v-61c16.1.8 29.1 14.1 29.1 30.5m2.9 0c0-18.5-15-33.5-33.5-33.5l-1.5.1v66.9h2.9V67c17.9-.8 32.1-15.4 32.1-33.4M380.7.2h2.9v66.9h-2.9zM423.6 40.3h29.7c-3.1 13.6-15.1 23.8-29.6 23.8-16.8 0-30.5-13.7-30.5-30.5s13.7-30.5 30.5-30.5c11.8 0 22 6.7 27.1 16.4l2.5-1.4C447.7 7.4 436.6 0 423.7 0c-18.4 0-33.4 15-33.4 33.5S405.2 67 423.7 67c17.1 0 31.3-13 33.1-29.7h-33.3l.1 3zM489 .1V59L466.5.1h-2.9V67h2.9V8.4l22.6 58.7h2.9V.1M352.2 26.4c10.9 1.6 18.9 9.2 18.9 19.3 0 10.2-8.5 18.4-18.9 18.4s-18.9-8.2-18.9-18.4v-.5h-2.9v.5c0 11.8 9.8 21.3 21.8 21.3S374 57.5 374 45.7s-8.4-19.9-21.8-22.3c-6-1.1-10.3-4.8-10.3-10.3S346.5 3 352.2 3c5.7 0 10.3 4.7 10.3 10.2 0 .1 2.8 0 2.8 0v-.3c0-7.1-5.9-12.9-13.1-12.9s-13.1 5.8-13.1 12.9c0 7.2 5.4 12.4 13.1 13.5M520.5 26.4c10.9 1.6 18.9 9.2 18.9 19.3 0 10.2-8.5 18.4-18.9 18.4-10.4 0-18.9-8.2-18.9-18.4v-.5h-2.9v.5c0 11.8 9.8 21.3 21.8 21.3s21.8-9.5 21.8-21.3-8.4-19.9-21.8-22.3c-6-1.1-10.3-4.8-10.3-10.3S514.8 3 520.5 3c5.7 0 10.3 4.7 10.3 10.2 0 .1 2.8 0 2.8 0v-.3c0-7.1-5.9-12.9-13.1-12.9-7.2 0-13.1 5.8-13.1 12.9-.1 7.2 5.4 12.4 13.1 13.5M309.3.1v67h14.4v-2.9h-11.5V28.8h8.7v-2.9h-8.7V3h8.7V.1M187.5 40.3h29.7c-3.1 13.6-15.1 23.8-29.6 23.8-16.8 0-30.5-13.7-30.5-30.5s13.7-30.5 30.5-30.5c11.8 0 22 6.7 27.1 16.4l2.5-1.4C211.6 7.4 200.5 0 187.6 0c-18.4 0-33.4 15-33.4 33.5S169.1 67 187.6 67c17.1 0 31.3-13 33.1-29.7h-33.2v3zM74.5.2v66.9h28v-2.9H77.4V.2"/></symbol><symbol viewBox="0 0 32 32" id="shape-twitter"><title>twitter</title><path d="M32 6.076c-1.177.522-2.443.875-3.77 1.034 1.354-.813 2.395-2.1 2.886-3.632-1.27.752-2.674 1.3-4.17 1.593C25.75 3.796 24.044 3 22.157 3c-3.627 0-6.566 2.94-6.566 6.565 0 .515.058 1.016.17 1.496-5.456-.275-10.294-2.89-13.532-6.86-.565.97-.89 2.096-.89 3.3 0 2.278 1.16 4.287 2.922 5.465-1.076-.034-2.088-.33-2.974-.82v.082c0 3.18 2.262 5.834 5.265 6.437-.55.15-1.13.23-1.73.23-.422 0-.833-.04-1.234-.118.835 2.608 3.26 4.506 6.133 4.56-2.248 1.76-5.08 2.81-8.155 2.81-.53 0-1.052-.032-1.566-.093 2.904 1.863 6.355 2.95 10.063 2.95 12.076 0 18.68-10.004 18.68-18.68 0-.285-.007-.568-.02-.85C30.006 8.55 31.12 7.394 32 6.077z"/></symbol><symbol viewBox="0 0 261.6 235.3" id="shape-wordmark"><title>wordmark</title><path d="M0 0V235.3h261.6V0H0zm127.5 14.6l-53.6 90.6-53.5-90.6h107.1zM14.6 33.5l52 88V187h-52V33.5zm118.8 187.2H14.6v-19.1h118.7v19.1zm0-33.7H81.2v-65.5l52.1-88.2V187zm14.5-171.6c49.4 7.8 87.1 50.5 87.1 102s-37.8 94.3-87.1 102v-204zM247 220.7h-58.6c29.8-16.4 51.7-45.3 58.6-79.7v79.7zm0-126.5c-6.9-34.3-28.8-63.2-58.5-79.6H247v79.6z"/></symbol></svg>