<!-- Generator: Adobe Illustrator 19.1.0, SVG Export Plug-In  -->
<svg version="1.1"
	 xmlns="http://www.w3.org/2000/svg" xmlns:xlink="http://www.w3.org/1999/xlink" xmlns:a="http://ns.adobe.com/AdobeSVGViewerExtensions/3.0/"
	 x="0px" y="0px" width="41px" height="16.6px" viewBox="0 0 41 16.6" enable-background="new 0 0 41 16.6" xml:space="preserve">
<defs>
</defs>
<path d="M40.2,0.1L20.5,15.5L0.8,0.1C0.5-0.1,0.2,0,0.1,0.3c-0.1,0.3,0,0.6,0.3,0.8l19.9,15.5c0,0,0,0,0,0
	c0,0,0.1,0,0.1,0c0,0,0.1,0,0.1,0s0.1,0,0.1,0c0,0,0.1,0,0.1,0c0,0,0,0,0,0L40.7,1.1C40.9,1,41,0.8,41,0.6c0-0.1,0-0.2-0.1-0.2
	C40.8,0,40.5-0.1,40.2,0.1z"/>
</svg>
