<!-- Generator: Adobe Illustrator 19.1.0, SVG Export Plug-In  -->
<svg version="1.1"
	 xmlns="http://www.w3.org/2000/svg" xmlns:xlink="http://www.w3.org/1999/xlink" xmlns:a="http://ns.adobe.com/AdobeSVGViewerExtensions/3.0/"
	 x="0px" y="0px" width="16.6px" height="41px" viewBox="0 0 16.6 41" enable-background="new 0 0 16.6 41" xml:space="preserve">
<defs>
</defs>
<path d="M16.6,40.2L1.2,20.5L16.6,0.8c0.1-0.3,0-0.6-0.3-0.8c-0.3-0.1-0.6,0-0.8,0.3L0.1,20.3c0,0,0,0,0,0
	c0,0,0,0.1,0,0.1c0,0,0,0.1,0,0.1s0,0.1,0,0.1c0,0,0,0.1,0,0.1c0,0,0,0,0,0l15.5,19.9c0.1,0.2,0.3,0.3,0.5,0.3c0.1,0,0.2,0,0.2-0.1
	C16.6,40.8,16.7,40.5,16.6,40.2z"/>
</svg>
