<!-- Generator: Adobe Illustrator 19.1.0, SVG Export Plug-In  -->
<svg version="1.1"
	 xmlns="http://www.w3.org/2000/svg" xmlns:xlink="http://www.w3.org/1999/xlink" xmlns:a="http://ns.adobe.com/AdobeSVGViewerExtensions/3.0/"
	 x="0px" y="0px" width="41px" height="16.6px" viewBox="0 0 41 16.6" enable-background="new 0 0 41 16.6" xml:space="preserve">
<defs>
</defs>
<path d="M0.8,16.6L20.5,1.2l19.7,15.4c0.3,0.1,0.6,0,0.8-0.3c0.1-0.3,0-0.6-0.3-0.8L20.7,0.1c0,0,0,0,0,0
	c0,0-0.1,0-0.1,0c0,0-0.1,0-0.1,0c0,0-0.1,0-0.1,0c0,0-0.1,0-0.1,0c0,0,0,0,0,0L0.3,15.6C0.1,15.7,0,15.9,0,16.1
	c0,0.1,0,0.2,0.1,0.2C0.2,16.6,0.5,16.7,0.8,16.6z"/>
</svg>
