<!-- Generator: Adobe Illustrator 19.1.0, SVG Export Plug-In  -->
<svg version="1.1"
	 xmlns="http://www.w3.org/2000/svg" xmlns:xlink="http://www.w3.org/1999/xlink" xmlns:a="http://ns.adobe.com/AdobeSVGViewerExtensions/3.0/"
	 x="0px" y="0px" width="11.4px" height="11.4px" viewBox="0 0 11.4 11.4" enable-background="new 0 0 11.4 11.4"
	 xml:space="preserve">
<defs>
</defs>
<path d="M10.2,3.7v2v2.8c0,0.6,0,1.7-1.7,1.7H5.7H2.9c-1.7,0-1.7-1.1-1.7-1.7V5.7v-2h2C2.6,4.3,2.3,5.1,2.3,5.9
	c0,1.9,1.5,3.4,3.4,3.4c1.9,0,3.4-1.5,3.4-3.4c0-0.9-0.4-1.7-0.9-2.3H10.2z M10.2,2.5H8V1.2h0.5C9.9,1.2,10.2,1.9,10.2,2.5 M8,5.9
	c0,1.3-1,2.3-2.3,2.3c-1.3,0-2.3-1-2.3-2.3s1-2.3,2.3-2.3C7,3.7,8,4.7,8,5.9 M11.4,9.3V5.7v-2V2.5V2.1c0-0.7,0-2.1-2.1-2.1H5.7H2.1
	C0,0,0,1.4,0,2.1v0.4v1.2v2v3.6c0,0.7,0,2.1,2.1,2.1h3.6h3.6C11.4,11.4,11.4,10,11.4,9.3"/>
</svg>
