<?xml version="1.0" encoding="utf-8"?>
<!-- Generated by IcoMoon.io -->
<!DOCTYPE svg PUBLIC "-//W3C//DTD SVG 1.1//EN" "http://www.w3.org/Graphics/SVG/1.1/DTD/svg11.dtd">
<svg version="1.1" xmlns="http://www.w3.org/2000/svg" xmlns:xlink="http://www.w3.org/1999/xlink" width="20" height="20" viewBox="0 0 20 20">
<path fill="#000000" d="M8.616 13.228c-0.525 2.753-1.166 5.393-3.066 6.772-0.586-4.162 0.861-7.287 1.533-10.605-1.146-1.93 0.138-5.812 2.556-4.855 2.975 1.177-2.576 7.173 1.15 7.922 3.891 0.782 5.479-6.75 3.067-9.199-3.486-3.538-10.148-0.082-9.328 4.981 0.199 1.238 1.478 1.614 0.511 3.322-2.231-0.494-2.897-2.254-2.811-4.6 0.138-3.839 3.45-6.527 6.772-6.899 4.202-0.471 8.145 1.542 8.688 5.494 0.613 4.46-1.895 9.291-6.389 8.943-1.217-0.093-1.728-0.696-2.683-1.276z"></path>
</svg>
