<!-- Generator: Adobe Illustrator 19.1.0, SVG Export Plug-In  -->
<svg version="1.1"
	 xmlns="http://www.w3.org/2000/svg" xmlns:xlink="http://www.w3.org/1999/xlink" xmlns:a="http://ns.adobe.com/AdobeSVGViewerExtensions/3.0/"
	 x="0px" y="0px" width="56.3px" height="56.2px" viewBox="0 0 56.3 56.2" enable-background="new 0 0 56.3 56.2"
	 xml:space="preserve">
<defs>
</defs>
<path d="M22.5,37.5c-8.3,0-15-6.7-15-15s6.7-15,15-15s15,6.7,15,15S30.8,37.5,22.5,37.5z M55.2,49.8L40.8,35.5
	c2.6-3.7,4.2-8.2,4.2-13C45,10.1,34.9,0,22.5,0S0,10.1,0,22.5S10.1,45,22.5,45c4.9,0,9.3-1.5,13-4.2l14.3,14.3
	c0.7,0.7,1.7,1.1,2.6,1.1s1.9-0.4,2.7-1.1C56.6,53.7,56.6,51.3,55.2,49.8z"/>
</svg>
