<!-- Generator: Adobe Illustrator 19.1.0, SVG Export Plug-In  -->
<svg version="1.1"
	 xmlns="http://www.w3.org/2000/svg" xmlns:xlink="http://www.w3.org/1999/xlink" xmlns:a="http://ns.adobe.com/AdobeSVGViewerExtensions/3.0/"
	 x="0px" y="0px" width="542.3px" height="67.1px" viewBox="0 0 542.3 67.1" enable-background="new 0 0 542.3 67.1"
	 xml:space="preserve">
<defs>
</defs>
<polygon fill="#FFFFFF" points="144.3,0.1 144.3,59 121.8,0.1 118.9,0.1 118.9,67 121.8,67 121.8,8.4 144.4,67.1 147.3,67.1 
	147.3,0.1 "/>
<rect x="109.2" y="0.2" fill="#FFFFFF" width="2.9" height="66.9"/>
<path fill="#FFFFFF" d="M67.8,0.2h-2.9V53c0,6.1-5,11.1-11.1,11.1s-11.1-5-11.1-11.1V0.2h-2.9V53c0,7.8,6.3,14,14,14
	c7.8,0,14-6.3,14-14V0.2z"/>
<polygon fill="#FFFFFF" points="16.5,30.2 2.7,0.2 0,1.4 14.9,33.7 0,65.9 2.7,67.1 33,1.4 30.3,0.2 "/>
<path fill="#FFFFFF" d="M299.7,33.6c0,16.4-12.9,29.8-29.1,30.5v-61C286.7,3.9,299.7,17.2,299.7,33.6 M302.6,33.6
	c0-18.5-15-33.5-33.5-33.5l-1.5,0.1v66.9h2.9V67C288.4,66.2,302.6,51.6,302.6,33.6"/>
<rect x="380.7" y="0.2" fill="#FFFFFF" width="2.9" height="66.9"/>
<path fill="#FFFFFF" d="M423.6,40.3h29.7c-3.1,13.6-15.1,23.8-29.6,23.8c-16.8,0-30.5-13.7-30.5-30.5s13.7-30.5,30.5-30.5
	c11.8,0,22,6.7,27.1,16.4l2.5-1.4C447.7,7.4,436.6,0,423.7,0c-18.4,0-33.4,15-33.4,33.5S405.2,67,423.7,67c17.1,0,31.3-13,33.1-29.7
	h-33.3L423.6,40.3L423.6,40.3z"/>
<polygon fill="#FFFFFF" points="489,0.1 489,59 466.5,0.1 463.6,0.1 463.6,67 466.5,67 466.5,8.4 489.1,67.1 492,67.1 492,0.1 "/>
<path fill="#FFFFFF" d="M352.2,26.4c10.9,1.6,18.9,9.2,18.9,19.3c0,10.2-8.5,18.4-18.9,18.4s-18.9-8.2-18.9-18.4c0-0.2,0-0.3,0-0.5
	h-2.9c0,0.2,0,0.3,0,0.5c0,11.8,9.8,21.3,21.8,21.3S374,57.5,374,45.7s-8.4-19.9-21.8-22.3c-6-1.1-10.3-4.8-10.3-10.3
	S346.5,3,352.2,3c5.7,0,10.3,4.7,10.3,10.2c0,0.1,2.8,0,2.8,0c0-0.1,0-0.2,0-0.3c0-7.1-5.9-12.9-13.1-12.9s-13.1,5.8-13.1,12.9
	C339.1,20.1,344.5,25.3,352.2,26.4"/>
<path fill="#FFFFFF" d="M520.5,26.4c10.9,1.6,18.9,9.2,18.9,19.3c0,10.2-8.5,18.4-18.9,18.4c-10.4,0-18.9-8.2-18.9-18.4
	c0-0.2,0-0.3,0-0.5h-2.9c0,0.2,0,0.3,0,0.5c0,11.8,9.8,21.3,21.8,21.3s21.8-9.5,21.8-21.3s-8.4-19.9-21.8-22.3
	c-6-1.1-10.3-4.8-10.3-10.3S514.8,3,520.5,3c5.7,0,10.3,4.7,10.3,10.2c0,0.1,2.8,0,2.8,0c0-0.1,0-0.2,0-0.3
	c0-7.1-5.9-12.9-13.1-12.9c-7.2,0-13.1,5.8-13.1,12.9C507.3,20.1,512.8,25.3,520.5,26.4"/>
<polygon fill="#FFFFFF" points="309.3,0.1 309.3,0.2 309.3,67.1 309.3,67.1 323.7,67.1 323.7,64.2 312.2,64.2 312.2,28.8 
	320.9,28.8 320.9,25.9 312.2,25.9 312.2,3 320.9,3 320.9,0.1 "/>
<path fill="#FFFFFF" d="M187.5,40.3h29.7c-3.1,13.6-15.1,23.8-29.6,23.8c-16.8,0-30.5-13.7-30.5-30.5s13.7-30.5,30.5-30.5
	c11.8,0,22,6.7,27.1,16.4l2.5-1.4C211.6,7.4,200.5,0,187.6,0c-18.4,0-33.4,15-33.4,33.5S169.1,67,187.6,67c17.1,0,31.3-13,33.1-29.7
	h-33.2V40.3z"/>
<polygon fill="#FFFFFF" points="74.5,0.2 74.5,64.2 74.5,67.1 77.4,67.1 102.5,67.1 102.5,64.2 77.4,64.2 77.4,0.2 "/>
</svg>
