<!-- Generator: Adobe Illustrator 19.1.0, SVG Export Plug-In  -->
<svg version="1.1"
	 xmlns="http://www.w3.org/2000/svg" xmlns:xlink="http://www.w3.org/1999/xlink" xmlns:a="http://ns.adobe.com/AdobeSVGViewerExtensions/3.0/"
	 x="0px" y="0px" width="261.6px" height="235.3px" viewBox="0 0 261.6 235.3" enable-background="new 0 0 261.6 235.3"
	 xml:space="preserve">
<defs>
</defs>
<path d="M0,0v220.7h0v14.6h261.6v0h0V0H0z M127.5,14.6l-53.6,90.6L20.4,14.6H127.5z M14.6,33.5l52,88V187h-52V33.5z M133.4,220.7
	H14.6v-19.1h118.7V220.7z M133.4,187H81.2v-65.5l52.1-88.2V187z M147.9,15.4c49.4,7.8,87.1,50.5,87.1,102c0,51.5-37.8,94.3-87.1,102
	V15.4z M247,220.7h-58.6c29.8-16.4,51.7-45.3,58.6-79.7V220.7z M247,94.2c-6.9-34.3-28.8-63.2-58.5-79.6H247V94.2z"/>
</svg>
